<svg xmlns="http://www.w3.org/2000/svg" xml:space="preserve" width="14px" height="14px" style="shape-rendering:geometricPrecision; text-rendering:geometricPrecision; image-rendering:optimizeQuality; fill-rule:evenodd; clip-rule:evenodd"
viewBox="0 0 0.445565 0.445512"
 xmlns:xlink="http://www.w3.org/1999/xlink"> 
 <g>  
  <path fill="#00437C" class="fil0" d="M0.445565 0.379299l-0.0662124 0.0662124 -0.0704673 -0.0704673c-0.0309345,0.0190985 -0.0670262,0.0306337 -0.106046,0.0306337 -0.112026,0 -0.202839,-0.0908132 -0.202839,-0.202839 0,-0.112026 0.0908132,-0.202839 0.202839,-0.202839 0.112026,0 0.202839,0.0908132 0.202839,0.202839 0,0.0389667 -0.0115794,0.0750142 -0.0306337,0.105949l0.0705204 0.0705116zm-0.242726 -0.316926c-0.077553,0 -0.140413,0.0629128 -0.140413,0.140466 0,0.077553 0.0628598,0.140413 0.140413,0.140413 0.077553,0 0.140466,-0.0628598 0.140466,-0.140413 0,-0.077553 -0.0629128,-0.140466 -0.140466,-0.140466z"/>
 </g>
</svg>
